<svg width="1600" height="1600" viewBox="0 0 1600 1600" fill="none" xmlns="http://www.w3.org/2000/svg">
  <defs>
    <linearGradient id="ringFade" x1="312" y1="238" x2="1326" y2="1312" gradientUnits="userSpaceOnUse">
      <stop stop-color="#FFF6EA" stop-opacity="0.86"/>
      <stop offset="0.5" stop-color="#C5765D" stop-opacity="0.42"/>
      <stop offset="1" stop-color="#7A4E3D" stop-opacity="0.72"/>
    </linearGradient>
    <linearGradient id="accentStroke" x1="455" y1="334" x2="1154" y2="1187" gradientUnits="userSpaceOnUse">
      <stop stop-color="#A86934"/>
      <stop offset="1" stop-color="#5D433B"/>
    </linearGradient>
    <pattern id="microGrid" width="40" height="40" patternUnits="userSpaceOnUse">
      <path d="M40 0H0V40" stroke="#8D6B60" stroke-opacity="0.12" stroke-width="1"/>
    </pattern>
    <filter id="softGlow" x="-20%" y="-20%" width="140%" height="140%">
      <feGaussianBlur stdDeviation="8" result="blur"/>
      <feMerge>
        <feMergeNode in="blur"/>
        <feMergeNode in="SourceGraphic"/>
      </feMerge>
    </filter>
  </defs>

  <rect width="1600" height="1600" fill="url(#microGrid)"/>

  <g opacity="0.32">
    <path d="M112 224H524" stroke="#6A544C" stroke-width="2"/>
    <path d="M112 248H462" stroke="#6A544C" stroke-opacity="0.48" stroke-width="2"/>
    <path d="M1078 1320H1496" stroke="#6A544C" stroke-width="2"/>
    <path d="M1158 1346H1496" stroke="#6A544C" stroke-opacity="0.48" stroke-width="2"/>
    <path d="M220 1456H632" stroke="#6A544C" stroke-width="2"/>
    <path d="M220 1432H570" stroke="#6A544C" stroke-opacity="0.48" stroke-width="2"/>
  </g>

  <g stroke-linecap="round" stroke-linejoin="round">
    <circle cx="800" cy="800" r="552" stroke="url(#ringFade)" stroke-opacity="0.22" stroke-width="2"/>
    <circle cx="800" cy="800" r="470" stroke="url(#ringFade)" stroke-opacity="0.34" stroke-width="2" stroke-dasharray="10 12"/>
    <circle cx="800" cy="800" r="394" stroke="url(#ringFade)" stroke-opacity="0.5" stroke-width="3"/>
    <circle cx="800" cy="800" r="318" stroke="url(#ringFade)" stroke-opacity="0.36" stroke-width="2" stroke-dasharray="14 16"/>
    <circle cx="800" cy="800" r="246" stroke="url(#ringFade)" stroke-opacity="0.6" stroke-width="3"/>
    <circle cx="800" cy="800" r="154" stroke="url(#ringFade)" stroke-opacity="0.7" stroke-width="2"/>

    <path d="M800 180V1420" stroke="url(#accentStroke)" stroke-opacity="0.34" stroke-width="3"/>
    <path d="M180 800H1420" stroke="url(#accentStroke)" stroke-opacity="0.34" stroke-width="3"/>
    <path d="M361.594 361.594L1238.41 1238.41" stroke="url(#accentStroke)" stroke-opacity="0.22" stroke-width="2"/>
    <path d="M1238.41 361.594L361.594 1238.41" stroke="url(#accentStroke)" stroke-opacity="0.22" stroke-width="2"/>

    <path d="M800 312L860 620L1170 800L860 980L800 1288L740 980L430 800L740 620L800 312Z" stroke="url(#accentStroke)" stroke-opacity="0.82" stroke-width="5" filter="url(#softGlow)"/>
    <path d="M800 414L842 668L1096 800L842 932L800 1186L758 932L504 800L758 668L800 414Z" stroke="#F7EBDD" stroke-opacity="0.48" stroke-width="2"/>

    <path d="M800 520L846 754L1080 800L846 846L800 1080L754 846L520 800L754 754L800 520Z" stroke="#A96A42" stroke-opacity="0.7" stroke-width="3"/>
    <path d="M800 608L824 776L992 800L824 824L800 992L776 824L608 800L776 776L800 608Z" stroke="#6E4F43" stroke-opacity="0.76" stroke-width="2"/>

    <circle cx="800" cy="800" r="24" stroke="#FFF1DE" stroke-opacity="0.72" stroke-width="3"/>
    <circle cx="800" cy="800" r="10" fill="#A96849" fill-opacity="0.7"/>

    <path d="M800 248C1014.84 248 1191.71 349.401 1306.02 530" stroke="#F5E4D3" stroke-opacity="0.34" stroke-width="2" stroke-dasharray="9 11"/>
    <path d="M248 800C248 1014.84 349.401 1191.71 530 1306.02" stroke="#F5E4D3" stroke-opacity="0.34" stroke-width="2" stroke-dasharray="9 11"/>
    <path d="M800 1352C585.16 1352 408.291 1250.6 293.98 1070" stroke="#F5E4D3" stroke-opacity="0.34" stroke-width="2" stroke-dasharray="9 11"/>
    <path d="M1352 800C1352 585.16 1250.6 408.291 1070 293.98" stroke="#F5E4D3" stroke-opacity="0.34" stroke-width="2" stroke-dasharray="9 11"/>
  </g>

  <g opacity="0.64" stroke="#6C5247" stroke-width="2">
    <path d="M800 206V240"/>
    <path d="M800 1360V1394"/>
    <path d="M206 800H240"/>
    <path d="M1360 800H1394"/>
    <path d="M387 387L412 412"/>
    <path d="M1188 1188L1213 1213"/>
    <path d="M387 1213L412 1188"/>
    <path d="M1188 412L1213 387"/>
  </g>

  <g opacity="0.42" stroke="#835F52" stroke-width="2">
    <path d="M800 278V306"/>
    <path d="M800 1294V1322"/>
    <path d="M278 800H306"/>
    <path d="M1294 800H1322"/>
    <path d="M475 475L492 492"/>
    <path d="M1108 1108L1125 1125"/>
    <path d="M475 1125L492 1108"/>
    <path d="M1108 492L1125 475"/>
  </g>

  <g opacity="0.52">
    <path d="M520 610L642 610" stroke="#6C5247" stroke-width="2"/>
    <path d="M958 990L1080 990" stroke="#6C5247" stroke-width="2"/>
    <path d="M610 520V642" stroke="#6C5247" stroke-width="2"/>
    <path d="M990 958V1080" stroke="#6C5247" stroke-width="2"/>
    <circle cx="610" cy="610" r="48" stroke="#6C5247" stroke-opacity="0.52" stroke-width="2"/>
    <circle cx="990" cy="990" r="48" stroke="#6C5247" stroke-opacity="0.52" stroke-width="2"/>
  </g>

  <g fill="#5F4A43" fill-opacity="0.82" font-family="'IBM Plex Mono', 'Avenir Next', monospace" font-size="24" letter-spacing="0.32em">
    <text x="776" y="160">N</text>
    <text x="1432" y="808">E</text>
    <text x="783" y="1474">S</text>
    <text x="152" y="808">W</text>
  </g>

  <g fill="#71574D" fill-opacity="0.78" font-family="'IBM Plex Mono', 'Avenir Next', monospace" font-size="19" letter-spacing="0.18em">
    <text x="114" y="210">DC-77 / ORBITAL DIRECTION CORE</text>
    <text x="1082" y="1304">VECTOR LOCK / PHASE NORTH</text>
    <text x="222" y="1488">AZIMUTH MEMORY GRID / R.03</text>
    <text x="1048" y="334">RING OFFSET 22.5 DEG</text>
    <text x="320" y="1240">FIELD STABILIZER NODE</text>
  </g>

  <g opacity="0.34" stroke="#7D6258" stroke-width="2" stroke-dasharray="6 10">
    <path d="M524 224L670 488"/>
    <path d="M1084 1302L930 1116"/>
    <path d="M632 1456L746 1120"/>
    <path d="M1120 338L960 620"/>
    <path d="M320 1232L566 972"/>
  </g>

  <g opacity="0.36" stroke="#664E47" stroke-width="2">
    <rect x="1018" y="286" width="268" height="78" rx="16"/>
    <rect x="264" y="1188" width="326" height="78" rx="16"/>
    <rect x="1028" y="1260" width="346" height="104" rx="16"/>
    <rect x="106" y="178" width="456" height="94" rx="16"/>
    <rect x="214" y="1408" width="460" height="94" rx="16"/>
  </g>
</svg>
